<svg width="78" height="76" viewBox="0 0 78 76" fill="none" xmlns="http://www.w3.org/2000/svg">
<g id="icon">
<path id="Vector" d="M20.3518 36.1456L24.0401 37.2275C23.8345 38.6114 23.8096 40.0049 23.9654 41.4082C24.1209 42.8127 24.4357 44.1863 24.9098 45.5288L21.4277 47.4989C20.727 45.6773 20.2813 43.8101 20.0907 41.8973C19.9012 39.9849 19.9883 38.0677 20.3518 36.1456ZM21.4663 32.3463C23.4405 27.6644 26.6475 24.2127 31.0872 21.9913C35.5284 19.7689 40.1004 19.3474 44.803 20.7268C49.5671 22.1243 53.2096 24.9554 55.7306 29.2201C58.252 33.4835 59.0635 38.114 58.165 43.1114L54.4767 42.0295C55.0687 38.0769 54.3484 34.4442 52.3159 31.1316C50.2833 27.8189 47.4076 25.6171 43.6885 24.5262C40.0002 23.4442 36.4061 23.7482 32.9061 25.438C29.4062 27.1277 26.8224 29.7912 25.1546 33.4282L21.4663 32.3463ZM48.1183 52.4399C49.2825 51.5435 50.3116 50.5387 51.2056 49.4256C52.0996 48.3124 52.8185 47.1135 53.3622 45.8288L57.0505 46.9107C56.3489 48.7336 55.4019 50.3986 54.2094 51.9056C53.0157 53.4123 51.6166 54.7383 50.0122 55.8838L48.1183 52.4399Z" fill="#39B90C"/>
<path id="Vector_2" d="M20.3518 36.1456L24.0401 37.2275C23.8345 38.6114 23.8096 40.0049 23.9654 41.4082C24.1209 42.8127 24.4357 44.1863 24.9098 45.5288L21.4277 47.4989C20.727 45.6773 20.2813 43.8101 20.0907 41.8973C19.9012 39.9849 19.9883 38.0677 20.3518 36.1456ZM21.4663 32.3463C23.4405 27.6644 26.6475 24.2127 31.0872 21.9913C35.5284 19.7689 40.1004 19.3474 44.803 20.7268C49.5671 22.1243 53.2096 24.9554 55.7306 29.2201C58.252 33.4835 59.0635 38.114 58.165 43.1114L54.4767 42.0295C55.0687 38.0769 54.3484 34.4442 52.3159 31.1316C50.2833 27.8189 47.4076 25.6171 43.6885 24.5262C40.0002 23.4442 36.4061 23.7482 32.9061 25.438C29.4062 27.1277 26.8224 29.7912 25.1546 33.4282L21.4663 32.3463ZM48.1183 52.4399C49.2825 51.5435 50.3116 50.5387 51.2056 49.4256C52.0996 48.3124 52.8185 47.1135 53.3622 45.8288L57.0505 46.9107C56.3489 48.7336 55.4019 50.3986 54.2094 51.9056C53.0157 53.4123 51.6166 54.7383 50.0122 55.8838L48.1183 52.4399Z" fill="#39B90C"/>
<path id="Ellipse 50" d="M69.0939 39.318C69.1488 33.4352 67.4515 27.6752 64.2169 22.7663C60.9823 17.8574 56.3555 14.0202 50.9217 11.7398C45.4879 9.4594 39.4911 8.8383 33.6896 9.95503C27.8881 11.0718 22.5426 13.8762 18.3289 18.0136C14.1152 22.1511 11.2226 27.4357 10.017 33.1993C8.81133 38.9629 9.34676 44.9466 11.5555 50.3936C13.7643 55.8407 17.5473 60.5065 22.426 63.801C27.3047 67.0955 33.0601 68.8708 38.9643 68.9024L37.9465 60.953C33.5824 60.9297 30.4185 59.8081 26.8124 57.3729C23.2063 54.9378 20.4102 51.4891 18.7776 47.4629C17.1449 43.4367 16.7492 39.0139 17.6403 34.7538C18.5315 30.4936 20.6695 26.5875 23.784 23.5293C26.8986 20.4711 30.8497 18.3983 35.1379 17.5729C39.426 16.7474 43.8585 17.2065 47.8749 18.8921C51.8913 20.5776 55.3112 23.4139 57.702 27.0423C60.0929 30.6707 61.3474 34.9282 61.3068 39.2764L69.0939 39.318Z" fill="#39B90C"/>
<path id="Ellipse 51" d="M69.0939 39.318C69.1488 33.4352 67.4515 27.6752 64.2169 22.7663C60.9823 17.8574 56.3555 14.0202 50.9217 11.7398C45.4879 9.4594 39.4911 8.8383 33.6896 9.95503C27.8881 11.0718 22.5426 13.8762 18.3289 18.0136C14.1152 22.1511 11.2226 27.4357 10.017 33.1993C8.81133 38.9629 9.34676 44.9466 11.5555 50.3936C13.7643 55.8407 17.5473 60.5065 22.426 63.801C27.3047 67.0955 33.0601 68.8708 38.9643 68.9024L37.9465 60.953C33.5824 60.9297 30.4185 59.8081 26.8124 57.3729C23.2063 54.9378 20.4102 51.4891 18.7776 47.4629C17.1449 43.4367 16.7492 39.0139 17.6403 34.7538C18.5315 30.4936 20.6695 26.5875 23.784 23.5293C26.8986 20.4711 30.8497 18.3983 35.1379 17.5729C39.426 16.7474 43.8585 17.2065 47.8749 18.8921C51.8913 20.5776 55.3112 23.4139 57.702 27.0423C60.0929 30.6707 61.3474 34.9282 61.3068 39.2764L69.0939 39.318Z" fill="#39B90C"/>
<path id="Rectangle 30" d="M36.4238 32.7344L38.8427 68.7186L31.871 67.9982C31.871 67.9982 28.9827 37.047 29.5803 36.1506C30.1778 35.2542 36.4238 32.7344 36.4238 32.7344Z" fill="#39B90C"/>
<path id="Vector_3" d="M39.5182 39.9514C40.2388 39.9514 40.8559 39.6975 41.3695 39.1898C41.8822 38.683 42.1386 38.0734 42.1386 37.3611C42.1386 36.6488 41.8822 36.0388 41.3695 35.5311C40.8559 35.0242 40.2388 34.7708 39.5182 34.7708C38.7976 34.7708 38.1809 35.0242 37.6682 35.5311C37.1546 36.0388 36.8978 36.6488 36.8978 37.3611C36.8978 38.0734 37.1546 38.683 37.6682 39.1898C38.1809 39.6975 38.7976 39.9514 39.5182 39.9514ZM31.6412 44.6618C28.1255 41.7045 33.3768 47.1985 31.6412 44.6618C29.9048 42.1259 29.5 39.5196 29.5 37.3611C29.5 34.257 30.0904 31.8028 32.1981 29.8817C34.3049 27.9606 36.7449 27 39.5182 27C42.2915 27 44.7315 27.9606 46.8383 29.8817C48.946 31.8028 49.9998 34.3823 49.9998 37.6201C49.9998 39.7787 49.132 42.1259 47.3965 44.6618C45.66 47.1985 32.1981 59.8229 31.6412 44.6618Z" fill="#39B90C"/>
<path id="Vector_4" d="M39.5182 39.9514C40.2388 39.9514 40.8559 39.6975 41.3695 39.1898C41.8822 38.683 42.1386 38.0734 42.1386 37.3611C42.1386 36.6488 41.8822 36.0388 41.3695 35.5311C40.8559 35.0242 40.2388 34.7708 39.5182 34.7708C38.7976 34.7708 38.1809 35.0242 37.6682 35.5311C37.1546 36.0388 36.8978 36.6488 36.8978 37.3611C36.8978 38.0734 37.1546 38.683 37.6682 39.1898C38.1809 39.6975 38.7976 39.9514 39.5182 39.9514ZM31.6412 44.6618C28.1255 41.7045 33.3768 47.1985 31.6412 44.6618C29.9048 42.1259 29.5 39.5196 29.5 37.3611C29.5 34.257 30.0904 31.8028 32.1981 29.8817C34.3049 27.9606 36.7449 27 39.5182 27C42.2915 27 44.7315 27.9606 46.8383 29.8817C48.946 31.8028 49.9998 34.3823 49.9998 37.6201C49.9998 39.7787 49.132 42.1259 47.3965 44.6618C45.66 47.1985 32.1981 59.8229 31.6412 44.6618Z" fill="#39B90C"/>
</g>
</svg>
